<?xml version="1.0" encoding="utf-8"?>
<!-- Generator: Adobe Illustrator 19.0.0, SVG Export Plug-In . SVG Version: 6.00 Build 0)  -->
<svg version="1.1" id="Layer_1" xmlns="http://www.w3.org/2000/svg" xmlns:xlink="http://www.w3.org/1999/xlink" x="0px" y="0px"
	 viewBox="0 0 50 50" style="enable-background:new 0 0 50 50;" xml:space="preserve">
<style type="text/css">
	.st0{fill:#429CD6;}
</style>
<g id="XMLID_224_">
	<g id="XMLID_768_">
		<path id="XMLID_769_" class="st0" d="M41.2,21.2c-1.2-3.5-3.4-6.3-6.7-8.4c-0.5-0.3-1-0.6-1.4-0.8c0.7,1.2,1.2,2.5,1.4,4
			c0.1,0.9,0.1,1.7,0,2.6C36.8,19.5,39.4,20.5,41.2,21.2z M30.6,25.5c4.1-0.2,7.3-0.9,9.4-1.6c-1.8-0.7-4.1-1.6-6.3-2.5
			c-0.4,0.9-0.8,1.7-1.4,2.4C31.8,24.4,31.2,25,30.6,25.5z M26.3,44.1c2.1-2.9,2.6-6.2,1.5-9.2C24.1,41.7,16.9,46,8.9,46
			c-1,0-2.1-0.1-3.1-0.2c-0.5,1.1-0.9,2.1-1.2,2.9c1.7,0.7,3.5,1.1,5.5,1.3h3.7C19.2,49.6,24.1,47.3,26.3,44.1z M9.6,36.6
			C9,38.3,8,40.7,7,43.1c0.6,0.1,1.3,0.1,1.9,0.1c7.5,0,14.3-4.5,17.1-11.3c-1.3-1.5-3.2-2.6-5.3-3c-0.7-0.1-1.3-0.2-2-0.2
			C13.9,28.6,11.1,33,9.6,36.6z M23.9,9.6c-0.3,0-0.7,0-1,0.1c-2.1,0.3-3.9,1.3-5.2,2.9c-1.3,1.6-1.8,3.6-1.6,5.7
			c0.5,3.8,3.8,6.7,7.7,6.7c0.3,0,0.7,0,1-0.1c2.1-0.3,3.9-1.3,5.2-2.9s1.8-3.6,1.6-5.7C31.1,12.5,27.8,9.6,23.9,9.6z M24.2,19.7
			c-1.3,0.2-2.5-0.8-2.7-2.1c-0.2-1.3,0.8-2.5,2.1-2.7c1.3-0.2,2.5,0.8,2.7,2.1C26.4,18.3,25.5,19.5,24.2,19.7z M45,0H5
			C2.2,0,0,2.2,0,5v40c0,1.4,0.6,2.7,1.6,3.6c0.6-1.4,3.8-9.2,5.4-13c2.3-5.8,6.1-9.1,10.6-9.7c-2.3-1.7-4-4.2-4.4-7.2
			c-0.4-2.8,0.4-5.6,2.2-7.8c1.7-2.2,4.2-3.6,7-4c0,0,0,0,0.1,0c0,0,0,0,0.1,0l0,0c2.6-0.5,8.5,0.3,13.6,3.6c4.5,3,7.5,7.3,8.6,12.5
			c0,0.1,0.1,0.2,0.1,0.4c0,0,0,0,0,0h0l0.1,0.7l-0.5,0.5c-1.7,1.9-7.9,3.8-15.5,3.8c-0.8,0-1.7,0-2.6-0.1c1.8,1.3,3.2,3.1,4,5.1
			c1.6,3.9,1,8.4-1.7,12.3c-1.2,1.7-2.9,3.1-4.9,4.3H45c2.8,0,5-2.2,5-5V5C50,2.2,47.8,0,45,0z"/>
	</g>
</g>
</svg>
